name Walk7.mot
datacolumns 19
datarows 17
range 3.06000000 3.14000000
endheader

                time	   L_ground_force_vx	   L_ground_force_vy	   L_ground_force_vz	   L_ground_force_px	   L_ground_force_py	   L_ground_force_pz	   R_ground_force_vx	   R_ground_force_vy	   R_ground_force_vz	   R_ground_force_px	   R_ground_force_py	   R_ground_force_pz	   L_ground_torque_x	   L_ground_torque_y	   L_ground_torque_z	   R_ground_torque_x	   R_ground_torque_y	   R_ground_torque_z	
          3.06000000	         33.17777821	        933.49231572	         75.80144685	         -0.22417188	          0.00000000	         -0.10115783	         -0.02232385	          0.36501049	          0.01485017	          0.00020534	          0.00000000	          0.00014638	          0.00000000	          0.53665365	          0.00000000	          0.00000000	          0.00502318	          0.00000000	
          3.06500000	         35.09874461	        941.86789385	         76.47099228	         -0.22227115	          0.00000000	         -0.10124039	         -0.03139108	          0.44969942	          0.01611111	          0.00023245	          0.00000000	          0.00016510	          0.00000000	          0.55098260	          0.00000000	          0.00000000	          0.00695274	          0.00000000	
          3.07000000	         37.00184795	        949.71210039	         77.18438907	         -0.22034996	          0.00000000	         -0.10133021	         -0.04165894	          0.52630107	          0.01609043	          0.00024605	          0.00000000	          0.00017392	          0.00000000	          0.57226182	          0.00000000	          0.00000000	          0.00910420	          0.00000000	
          3.07500000	         38.91882091	        956.96650541	         77.92702392	         -0.21841588	          0.00000000	         -0.10142474	         -0.05253270	          0.58084441	          0.01407379	          0.00023691	          0.00000000	          0.00016622	          0.00000000	          0.59919075	          0.00000000	          0.00000000	          0.01133633	          0.00000000	
          3.08000000	         40.88115960	        963.60029734	         78.67933899	         -0.21647780	          0.00000000	         -0.10152097	         -0.06301027	          0.59426377	          0.00919339	          0.00019345	          0.00000000	          0.00013372	          0.00000000	          0.63007309	          0.00000000	          0.00000000	          0.01341898	          0.00000000	
          3.08500000	         42.91992929	        969.60917446	         79.41872216	         -0.21454628	          0.00000000	         -0.10161571	         -0.07157785	          0.54190024	          0.00044918	          0.00010182	          0.00000000	          0.00006655	          0.00000000	          0.66287588	          0.00000000	          0.00000000	          0.01501169	          0.00000000	
          3.09000000	         45.06558245	        975.01561172	         80.12190543	         -0.21263362	          0.00000000	         -0.10170647	         -0.07611040	          0.39341410	         -0.01324175	         -0.00005363	          0.00000000	         -0.00004640	          0.00000000	          0.69547414	          0.00000000	          0.00000000	          0.01564396	          0.00000000	
          3.09500000	         47.34472482	        979.86722555	         80.76809839	         -0.21075296	          0.00000000	         -0.10179135	         -0.07379181	          0.11334881	         -0.03295803	         -0.00028942	          0.00000000	         -0.00021680	          0.00000000	          0.72567272	          0.00000000	          0.00000000	          0.01470058	          0.00000000	
          3.10000000	         49.77860617	        984.23173305	         81.33938687	         -0.20891792	          0.00000000	         -0.10186836	         -0.06107564	         -0.33735841	         -0.05963855	         -0.00062141	          0.00000000	         -0.00045580	          0.00000000	          0.75152399	          0.00000000	          0.00000000	          0.01141649	          0.00000000	
          3.10500000	         52.38289662	        988.18549286	         81.82155722	         -0.20714190	          0.00000000	         -0.10193592	         -0.03371397	         -0.99857633	         -0.09388850	         -0.00106247	          0.00000000	         -0.00077227	          0.00000000	          0.77162049	          0.00000000	          0.00000000	          0.00488737	          0.00000000	
          3.11000000	         55.16816172	        991.80539543	         82.20612381	         -0.20543703	          0.00000000	         -0.10199209	          0.01311114	         -1.90651364	         -0.13571809	         -0.00161922	          0.00000000	         -0.00117053	          0.00000000	          0.78558259	          0.00000000	          0.00000000	         -0.00589674	          0.00000000	
          3.11500000	         58.13855710	        995.16177574	         82.49318047	         -0.20381287	          0.00000000	         -0.10203376	          0.08451229	         -3.08720600	         -0.18420845	         -0.00228770	          0.00000000	         -0.00164720	          0.00000000	          0.79427359	          0.00000000	          0.00000000	         -0.02198604	          0.00000000	
          3.12000000	         61.29016941	        998.31270488	         82.69072800	         -0.20227613	          0.00000000	         -0.10205785	          0.18543107	         -4.54761452	         -0.23710527	         -0.00304799	          0.00000000	         -0.00218737	          0.00000000	          0.79974566	          0.00000000	          0.00000000	         -0.04436387	          0.00000000	
          3.12500000	         64.61254786	       1001.30192122	         82.81277001	         -0.20083110	          0.00000000	         -0.10206183	          0.31993290	         -6.26409736	         -0.29034975	         -0.00385766	          0.00000000	         -0.00275993	          0.00000000	          0.80471491	          0.00000000	          0.00000000	         -0.07378809	          0.00000000	
          3.13000000	         68.09143275	       1004.15985648	         82.87720008	         -0.19948030	          0.00000000	         -0.10204417	          0.49021561	         -8.16820677	         -0.33756983	         -0.00464448	          0.00000000	         -0.00331240	          0.00000000	          0.81192310	          0.00000000	          0.00000000	         -0.11057149	          0.00000000	
          3.13500000	         71.70959225	       1006.90412236	         82.90400665	         -0.19822438	          0.00000000	         -0.10200414	          0.69529368	        -10.13006709	         -0.36957203	         -0.00529865	          0.00000000	         -0.00376540	          0.00000000	          0.82336762	          0.00000000	          0.00000000	         -0.15429419	          0.00000000	
          3.14000000	         75.44790571	       1009.53779716	         82.91249137	         -0.19706156	          0.00000000	         -0.10194292	          0.92933902	        -11.94003055	         -0.37389701	         -0.00566527	          0.00000000	         -0.00400741	          0.00000000	          0.84019366	          0.00000000	          0.00000000	         -0.20344569	          0.00000000	
